<svg xmlns="http://www.w3.org/2000/svg" version="1.1" xmlns:xlink="http://www.w3.org/1999/xlink" xmlns:svgjs="http://svgjs.dev/svgjs" width="1440" height="560" preserveAspectRatio="none" viewBox="0 0 1440 560"><g mask="url(&quot;#SvgjsMask1086&quot;)" fill="none"><path d="M1248.8331562124254 53.762532818057764L1305.7321188657397 181.88817697940203 1379.4842307305485 84.01581884563821z" fill="rgba(241, 224, 249, 1)" class="triangle-float2"></path><path d="M160.989,356.415C200.314,354.283,230.377,324.83,249.113,290.189C266.81,257.468,270.517,219.002,253.083,186.14C234.489,151.091,200.653,125.051,160.989,124.078C119.735,123.066,82.013,146.072,60.724,181.422C38.704,217.985,33.38,263.701,54.599,300.735C75.927,337.958,118.152,358.737,160.989,356.415" fill="rgba(241, 224, 249, 1)" class="triangle-float2"></path><path d="M1231.831,371.905C1263.138,370.13,1290.626,354.977,1308.53,329.234C1330.047,298.297,1349.101,260.624,1332.886,226.607C1314.953,188.986,1273.506,168.761,1231.831,168.327C1189.368,167.884,1147.457,187.217,1127.059,224.462C1107.327,260.492,1114.631,305.393,1138.426,338.879C1158.928,367.731,1196.493,373.909,1231.831,371.905" fill="rgba(241, 224, 249, 1)" class="triangle-float2"></path><path d="M1081.4100011676262 511.6085309462838L1164.7568756239825 496.91222822190696 1101.0389843092391 379.2400678995607z" fill="rgba(241, 224, 249, 1)" class="triangle-float2"></path><path d="M1358.4115682698775-52.42336838468801L1263.4988321265832 36.08418993553722 1446.9191265901027 42.4893677586063z" fill="rgba(241, 224, 249, 1)" class="triangle-float2"></path><path d="M1174.504,633.201C1232.431,635.215,1272.272,582.252,1301.441,532.164C1330.866,481.636,1354.176,422.581,1327.443,370.578C1298.836,314.929,1236.919,280.826,1174.504,285.237C1117.885,289.239,1079.135,338.5,1054.926,389.838C1034.479,433.199,1040.849,480.81,1061.99,523.837C1086.712,574.149,1118.48,631.253,1174.504,633.201" fill="rgba(241, 224, 249, 1)" class="triangle-float1"></path><path d="M537.926,564.212C573.021,566.93,607.432,547.892,624.446,517.077C640.973,487.144,635.114,450.449,616.614,421.694C599.629,395.295,569.316,382.804,537.926,382.6C506.121,382.393,472.525,392.655,457.445,420.659C442.907,447.656,456.878,478.515,471.873,505.261C487.341,532.851,506.39,561.77,537.926,564.212" fill="rgba(241, 224, 249, 1)" class="triangle-float1"></path><path d="M499.1276790155514-30.01734004308762L452.4389350233789 57.791416416770716 607.4964417092526 83.92015417510024z" fill="rgba(241, 224, 249, 1)" class="triangle-float1"></path><path d="M1459.081,496.848C1502.432,499.58,1544.086,475.744,1565.422,437.908C1586.414,400.682,1581.974,354.894,1559.696,318.423C1538.376,283.522,1499.958,265.134,1459.081,263.824C1415.457,262.426,1366.998,272.987,1346.643,311.596C1327.085,348.693,1351.913,389.974,1373.672,425.824C1394.263,459.75,1419.474,494.352,1459.081,496.848" fill="rgba(241, 224, 249, 1)" class="triangle-float1"></path><path d="M632.0496628021652 458.44641042492583L785.1469872120477 420.2749602891753 593.8782126664147 305.3490860150433z" fill="rgba(241, 224, 249, 1)" class="triangle-float1"></path><path d="M899.791,643.501C930.546,642.442,958.143,627.391,975.113,601.72C994.306,572.687,1007.834,536.036,990.953,505.601C973.724,474.538,935.29,464.679,899.791,465.918C866.66,467.074,836.093,483.183,819.024,511.602C801.416,540.92,797.054,578.072,814.913,607.237C832.134,635.359,866.835,644.636,899.791,643.501" fill="rgba(241, 224, 249, 1)" class="triangle-float1"></path><path d="M1325.8625190556388 283.5722100412513L1245.6195961187277 168.74067421516105 1191.936361498423 278.80761638557476z" fill="rgba(241, 224, 249, 1)" class="triangle-float2"></path><path d="M108.93845025253573 275.05511814635577L-26.138185723114034 338.0423879396162 171.9257200457962 410.13175412200553z" fill="rgba(241, 224, 249, 1)" class="triangle-float1"></path></g><defs><mask id="SvgjsMask1086"><rect width="1440" height="560" fill="#ffffff"></rect></mask><style>
                @keyframes float1 {
                    0%{transform: translate(0, 0)}
                    50%{transform: translate(-10px, 0)}
                    100%{transform: translate(0, 0)}
                }

                .triangle-float1 {
                    animation: float1 5s infinite;
                }

                @keyframes float2 {
                    0%{transform: translate(0, 0)}
                    50%{transform: translate(-5px, -5px)}
                    100%{transform: translate(0, 0)}
                }

                .triangle-float2 {
                    animation: float2 4s infinite;
                }

                @keyframes float3 {
                    0%{transform: translate(0, 0)}
                    50%{transform: translate(0, -10px)}
                    100%{transform: translate(0, 0)}
                }

                .triangle-float3 {
                    animation: float3 6s infinite;
                }
            </style></defs></svg>